<?xml version="1.0" encoding="UTF-8" standalone="no"?>
<!DOCTYPE svg PUBLIC "-//W3C//DTD SVG 1.1//EN" "http://www.w3.org/Graphics/SVG/1.1/DTD/svg11.dtd">
<svg width="100%" height="100%" viewBox="0 0 255 80" version="1.1" xmlns="http://www.w3.org/2000/svg" xmlns:xlink="http://www.w3.org/1999/xlink" xml:space="preserve" xmlns:serif="http://www.serif.com/" style="fill-rule:evenodd;clip-rule:evenodd;stroke-linejoin:round;stroke-miterlimit:2;">
    <g transform="matrix(1,0,0,1,0,-791)">
        <g id="Artboard2" transform="matrix(1,0,0,1,0,-0.400181)">
            <rect x="0" y="791.4" width="254.299" height="79.514" style="fill:none;"/>
            <g transform="matrix(1.03895,0,0,1.03895,-90.4782,483.592)">
                <g transform="matrix(40.1712,0,0,40.1712,113.581,350.015)">
                    <path d="M0.098,-0L0.262,-0C0.503,-0 0.671,-0.12 0.671,-0.344C0.671,-0.581 0.482,-0.667 0.3,-0.667L0.098,-0.667L0.098,-0ZM0.18,-0.069L0.18,-0.598L0.286,-0.598C0.48,-0.598 0.583,-0.495 0.583,-0.335C0.583,-0.187 0.495,-0.069 0.252,-0.069L0.18,-0.069Z" style="fill-rule:nonzero;"/>
                </g>
                <g transform="matrix(40.1712,0,0,40.1712,142.625,350.015)">
                    <path d="M0.098,-0L0.262,-0C0.503,-0 0.671,-0.12 0.671,-0.344C0.671,-0.581 0.482,-0.667 0.3,-0.667L0.098,-0.667L0.098,-0ZM0.18,-0.069L0.18,-0.598L0.286,-0.598C0.48,-0.598 0.583,-0.495 0.583,-0.335C0.583,-0.187 0.495,-0.069 0.252,-0.069L0.18,-0.069Z" style="fill-rule:nonzero;"/>
                </g>
                <g transform="matrix(40.1712,0,0,40.1712,171.669,350.015)">
                    <path d="M0.087,-0L0.167,-0L0.185,-0.574L0.399,-0L0.461,-0L0.675,-0.567L0.696,-0L0.776,-0L0.752,-0.667L0.634,-0.667L0.43,-0.116L0.229,-0.667L0.111,-0.667L0.087,-0Z" style="fill-rule:nonzero;"/>
                </g>
                <g transform="matrix(40.1712,0,0,40.1712,215.977,350.015)">
                    <path d="M0.098,-0L0.18,-0L0.18,-0.299L0.419,-0.299L0.419,-0.372L0.18,-0.372L0.18,-0.598L0.482,-0.598L0.482,-0.667L0.098,-0.667L0.098,-0Z" style="fill-rule:nonzero;"/>
                </g>
                <g transform="matrix(40.1712,0,0,40.1712,236.545,350.015)">
                    <path d="M0.116,-0.564C0.146,-0.564 0.17,-0.588 0.17,-0.618C0.17,-0.648 0.146,-0.672 0.116,-0.672C0.086,-0.672 0.062,-0.648 0.062,-0.618C0.062,-0.588 0.086,-0.564 0.116,-0.564ZM0.076,-0L0.154,-0L0.154,-0.45L0.076,-0.45L0.076,-0Z" style="fill-rule:nonzero;"/>
                </g>
                <g transform="matrix(40.1712,0,0,40.1712,245.784,350.015)">
                    <path d="M0.076,-0L0.154,-0L0.154,-0.714L0.076,-0.7L0.076,-0Z" style="fill-rule:nonzero;"/>
                </g>
                <g transform="matrix(40.1712,0,0,40.1712,255.024,350.015)">
                    <path d="M0.074,-0L0.152,-0L0.152,-0.298C0.178,-0.324 0.254,-0.393 0.312,-0.393C0.343,-0.393 0.368,-0.372 0.368,-0.305L0.368,-0L0.446,-0L0.446,-0.305C0.478,-0.335 0.546,-0.393 0.599,-0.393C0.63,-0.393 0.655,-0.372 0.655,-0.305L0.655,-0L0.733,-0L0.733,-0.327C0.733,-0.424 0.684,-0.462 0.62,-0.462C0.539,-0.462 0.472,-0.403 0.441,-0.372C0.428,-0.436 0.386,-0.462 0.333,-0.462C0.249,-0.462 0.18,-0.4 0.152,-0.37L0.152,-0.457L0.074,-0.443L0.074,-0Z" style="fill-rule:nonzero;"/>
                </g>
                <g transform="matrix(40.1712,0,0,40.1712,287.321,350.015)">
                    <path d="M0.042,-0.028C0.042,-0.028 0.095,0.012 0.186,0.012C0.288,0.012 0.351,-0.038 0.351,-0.118C0.351,-0.267 0.13,-0.252 0.13,-0.344C0.13,-0.375 0.155,-0.397 0.209,-0.397C0.265,-0.397 0.319,-0.371 0.319,-0.371L0.34,-0.437C0.34,-0.437 0.291,-0.462 0.215,-0.462C0.1,-0.462 0.051,-0.406 0.051,-0.338C0.051,-0.194 0.272,-0.208 0.272,-0.112C0.272,-0.077 0.244,-0.053 0.188,-0.053C0.116,-0.053 0.059,-0.097 0.059,-0.097L0.042,-0.028Z" style="fill-rule:nonzero;"/>
                </g>
            </g>
        </g>
    </g>
</svg>
