<?xml version="1.0" encoding="UTF-8" standalone="no"?>
<!DOCTYPE svg PUBLIC "-//W3C//DTD SVG 1.1//EN" "http://www.w3.org/Graphics/SVG/1.1/DTD/svg11.dtd">
<svg width="100%" height="100%" viewBox="0 0 255 80" version="1.1" xmlns="http://www.w3.org/2000/svg" xmlns:xlink="http://www.w3.org/1999/xlink" xml:space="preserve" xmlns:serif="http://www.serif.com/" style="fill-rule:evenodd;clip-rule:evenodd;stroke-linejoin:round;stroke-miterlimit:2;">
    <g transform="matrix(1,0,0,1,0,-791)">
        <g id="Artboard2" transform="matrix(1,0,0,1,0,-0.400181)">
            <rect x="0" y="791.4" width="254.299" height="79.514" style="fill:none;"/>
            <g transform="matrix(0.937824,0,0,0.937824,-103.541,518.918)">
                <g transform="matrix(40.1712,0,0,40.1712,113.581,350.015)">
                    <path d="M0.504,-0.199L0.519,-0.199C0.517,-0.103 0.516,-0.036 0.516,0.002C0.466,0.001 0.347,-0 0.16,-0C0.111,-0 0.072,0.001 0.043,0.002L0.043,-0.013C0.066,-0.017 0.08,-0.027 0.085,-0.044C0.09,-0.06 0.093,-0.097 0.093,-0.154L0.093,-0.573C0.093,-0.63 0.09,-0.667 0.085,-0.684C0.08,-0.7 0.066,-0.71 0.043,-0.714L0.043,-0.729C0.072,-0.728 0.111,-0.727 0.16,-0.727C0.35,-0.727 0.47,-0.728 0.52,-0.729C0.519,-0.696 0.518,-0.659 0.518,-0.618C0.518,-0.584 0.518,-0.56 0.519,-0.546L0.504,-0.546C0.494,-0.575 0.483,-0.598 0.472,-0.617C0.46,-0.636 0.449,-0.65 0.439,-0.66C0.429,-0.67 0.415,-0.677 0.398,-0.682C0.38,-0.687 0.365,-0.689 0.353,-0.69C0.341,-0.691 0.322,-0.691 0.295,-0.691C0.266,-0.691 0.243,-0.69 0.227,-0.687L0.227,-0.393L0.286,-0.393C0.324,-0.393 0.353,-0.398 0.374,-0.409C0.395,-0.42 0.41,-0.443 0.419,-0.479L0.434,-0.479C0.431,-0.439 0.43,-0.408 0.43,-0.386C0.43,-0.351 0.431,-0.317 0.434,-0.285L0.419,-0.285C0.412,-0.316 0.398,-0.337 0.377,-0.346C0.356,-0.355 0.325,-0.359 0.286,-0.359L0.227,-0.359L0.227,-0.04C0.243,-0.037 0.266,-0.036 0.295,-0.036C0.322,-0.036 0.344,-0.037 0.36,-0.04C0.376,-0.043 0.394,-0.049 0.413,-0.059C0.432,-0.069 0.449,-0.086 0.464,-0.109C0.479,-0.132 0.492,-0.162 0.504,-0.199Z" style="fill-rule:nonzero;"/>
                </g>
                <g transform="matrix(40.1712,0,0,40.1712,135.916,350.015)">
                    <path d="M0.236,-0.013L0.236,0.002C0.207,0.001 0.172,-0 0.131,-0C0.09,-0 0.055,0.001 0.026,0.002L0.026,-0.013C0.043,-0.016 0.054,-0.023 0.06,-0.033C0.066,-0.043 0.069,-0.067 0.069,-0.104L0.069,-0.626C0.069,-0.659 0.067,-0.682 0.064,-0.693C0.061,-0.704 0.052,-0.712 0.038,-0.716L0.038,-0.731C0.097,-0.731 0.148,-0.741 0.193,-0.762L0.193,-0.104C0.193,-0.067 0.196,-0.043 0.202,-0.033C0.208,-0.023 0.219,-0.016 0.236,-0.013Z" style="fill-rule:nonzero;"/>
                </g>
                <g transform="matrix(40.1712,0,0,40.1712,146.281,350.015)">
                    <path d="M0.448,-0.116L0.457,-0.103C0.408,-0.028 0.345,0.01 0.268,0.01C0.201,0.01 0.144,-0.012 0.097,-0.057C0.049,-0.102 0.025,-0.161 0.025,-0.234C0.025,-0.308 0.049,-0.368 0.097,-0.413C0.144,-0.458 0.199,-0.48 0.261,-0.48C0.317,-0.48 0.364,-0.464 0.403,-0.433C0.442,-0.401 0.461,-0.35 0.461,-0.281L0.149,-0.281L0.149,-0.269C0.149,-0.205 0.165,-0.153 0.196,-0.114C0.227,-0.075 0.266,-0.055 0.315,-0.055C0.361,-0.055 0.405,-0.075 0.448,-0.116ZM0.152,-0.313L0.338,-0.313C0.338,-0.406 0.311,-0.453 0.258,-0.453C0.23,-0.453 0.207,-0.44 0.188,-0.413C0.169,-0.386 0.157,-0.353 0.152,-0.313Z" style="fill-rule:nonzero;"/>
                </g>
                <g transform="matrix(40.1712,0,0,40.1712,165.683,350.015)">
                    <path d="M0.829,-0.013L0.829,0.002C0.8,0.001 0.765,-0 0.724,-0C0.683,-0 0.648,0.001 0.619,0.002L0.619,-0.013C0.636,-0.016 0.647,-0.023 0.653,-0.033C0.659,-0.043 0.662,-0.067 0.662,-0.104L0.662,-0.317C0.662,-0.361 0.656,-0.392 0.644,-0.41C0.632,-0.428 0.61,-0.437 0.577,-0.437C0.543,-0.437 0.51,-0.423 0.479,-0.396C0.487,-0.375 0.491,-0.349 0.491,-0.317L0.491,-0.104C0.491,-0.067 0.494,-0.043 0.5,-0.033C0.506,-0.023 0.517,-0.016 0.534,-0.013L0.534,0.002C0.505,0.001 0.47,-0 0.429,-0C0.388,-0 0.353,0.001 0.324,0.002L0.324,-0.013C0.341,-0.016 0.352,-0.023 0.358,-0.033C0.364,-0.043 0.367,-0.067 0.367,-0.104L0.367,-0.317C0.367,-0.361 0.361,-0.392 0.35,-0.41C0.339,-0.428 0.318,-0.437 0.288,-0.437C0.254,-0.437 0.223,-0.422 0.194,-0.392L0.194,-0.104C0.194,-0.067 0.197,-0.043 0.203,-0.033C0.209,-0.023 0.22,-0.016 0.237,-0.013L0.237,0.002C0.208,0.001 0.173,-0 0.132,-0C0.091,-0 0.056,0.001 0.027,0.002L0.027,-0.013C0.044,-0.016 0.055,-0.023 0.061,-0.033C0.067,-0.043 0.07,-0.067 0.07,-0.104L0.07,-0.344C0.07,-0.377 0.068,-0.4 0.065,-0.411C0.062,-0.422 0.053,-0.43 0.039,-0.434L0.039,-0.449C0.098,-0.449 0.149,-0.459 0.194,-0.48L0.194,-0.423C0.24,-0.461 0.29,-0.48 0.344,-0.48C0.404,-0.48 0.446,-0.459 0.469,-0.418C0.52,-0.459 0.575,-0.48 0.634,-0.48C0.735,-0.48 0.786,-0.426 0.786,-0.317L0.786,-0.104C0.786,-0.067 0.789,-0.043 0.795,-0.033C0.801,-0.023 0.812,-0.016 0.829,-0.013Z" style="fill-rule:nonzero;"/>
                </g>
                <g transform="matrix(40.1712,0,0,40.1712,199.628,350.015)">
                    <path d="M0.829,-0.013L0.829,0.002C0.8,0.001 0.765,-0 0.724,-0C0.683,-0 0.648,0.001 0.619,0.002L0.619,-0.013C0.636,-0.016 0.647,-0.023 0.653,-0.033C0.659,-0.043 0.662,-0.067 0.662,-0.104L0.662,-0.317C0.662,-0.361 0.656,-0.392 0.644,-0.41C0.632,-0.428 0.61,-0.437 0.577,-0.437C0.543,-0.437 0.51,-0.423 0.479,-0.396C0.487,-0.375 0.491,-0.349 0.491,-0.317L0.491,-0.104C0.491,-0.067 0.494,-0.043 0.5,-0.033C0.506,-0.023 0.517,-0.016 0.534,-0.013L0.534,0.002C0.505,0.001 0.47,-0 0.429,-0C0.388,-0 0.353,0.001 0.324,0.002L0.324,-0.013C0.341,-0.016 0.352,-0.023 0.358,-0.033C0.364,-0.043 0.367,-0.067 0.367,-0.104L0.367,-0.317C0.367,-0.361 0.361,-0.392 0.35,-0.41C0.339,-0.428 0.318,-0.437 0.288,-0.437C0.254,-0.437 0.223,-0.422 0.194,-0.392L0.194,-0.104C0.194,-0.067 0.197,-0.043 0.203,-0.033C0.209,-0.023 0.22,-0.016 0.237,-0.013L0.237,0.002C0.208,0.001 0.173,-0 0.132,-0C0.091,-0 0.056,0.001 0.027,0.002L0.027,-0.013C0.044,-0.016 0.055,-0.023 0.061,-0.033C0.067,-0.043 0.07,-0.067 0.07,-0.104L0.07,-0.344C0.07,-0.377 0.068,-0.4 0.065,-0.411C0.062,-0.422 0.053,-0.43 0.039,-0.434L0.039,-0.449C0.098,-0.449 0.149,-0.459 0.194,-0.48L0.194,-0.423C0.24,-0.461 0.29,-0.48 0.344,-0.48C0.404,-0.48 0.446,-0.459 0.469,-0.418C0.52,-0.459 0.575,-0.48 0.634,-0.48C0.735,-0.48 0.786,-0.426 0.786,-0.317L0.786,-0.104C0.786,-0.067 0.789,-0.043 0.795,-0.033C0.801,-0.023 0.812,-0.016 0.829,-0.013Z" style="fill-rule:nonzero;"/>
                </g>
                <g transform="matrix(40.1712,0,0,40.1712,233.572,350.015)">
                    <path d="M0.237,-0.013L0.237,0.002C0.208,0.001 0.173,-0 0.132,-0C0.091,-0 0.056,0.001 0.027,0.002L0.027,-0.013C0.044,-0.016 0.055,-0.023 0.061,-0.033C0.067,-0.043 0.07,-0.067 0.07,-0.104L0.07,-0.344C0.07,-0.377 0.068,-0.4 0.065,-0.411C0.062,-0.422 0.053,-0.43 0.039,-0.434L0.039,-0.449C0.098,-0.449 0.149,-0.459 0.194,-0.48L0.194,-0.104C0.194,-0.067 0.197,-0.043 0.203,-0.033C0.209,-0.023 0.22,-0.016 0.237,-0.013ZM0.197,-0.579C0.197,-0.562 0.191,-0.547 0.179,-0.536C0.166,-0.524 0.151,-0.518 0.132,-0.518C0.115,-0.518 0.1,-0.524 0.089,-0.536C0.077,-0.548 0.071,-0.562 0.071,-0.579C0.071,-0.598 0.077,-0.613 0.089,-0.626C0.1,-0.638 0.115,-0.644 0.132,-0.644C0.151,-0.644 0.166,-0.638 0.179,-0.626C0.191,-0.614 0.197,-0.598 0.197,-0.579Z" style="fill-rule:nonzero;"/>
                </g>
                <g transform="matrix(40.1712,0,0,40.1712,243.937,350.015)">
                    <path d="M0.237,-0.013L0.237,0.002C0.208,0.001 0.173,-0 0.132,-0C0.091,-0 0.056,0.001 0.027,0.002L0.027,-0.013C0.044,-0.016 0.055,-0.023 0.061,-0.033C0.067,-0.043 0.07,-0.067 0.07,-0.104L0.07,-0.344C0.07,-0.377 0.068,-0.4 0.065,-0.411C0.062,-0.422 0.053,-0.43 0.039,-0.434L0.039,-0.449C0.098,-0.449 0.149,-0.459 0.194,-0.48L0.194,-0.398C0.226,-0.43 0.251,-0.452 0.268,-0.463C0.284,-0.474 0.304,-0.48 0.325,-0.48C0.352,-0.48 0.374,-0.469 0.391,-0.447C0.408,-0.425 0.416,-0.389 0.416,-0.34L0.295,-0.34C0.295,-0.379 0.281,-0.398 0.252,-0.398C0.232,-0.398 0.213,-0.387 0.194,-0.366L0.194,-0.104C0.194,-0.067 0.197,-0.043 0.203,-0.033C0.209,-0.023 0.22,-0.016 0.237,-0.013Z" style="fill-rule:nonzero;"/>
                </g>
                <g transform="matrix(40.1712,0,0,40.1712,270.932,350.015)">
                    <path d="M0.873,-0.013L0.873,0.002C0.845,0.001 0.81,-0 0.769,-0C0.73,-0 0.695,0.001 0.666,0.002L0.666,-0.013C0.687,-0.018 0.698,-0.034 0.698,-0.06C0.698,-0.074 0.694,-0.103 0.686,-0.148L0.628,-0.474L0.42,0.008L0.403,0.008L0.18,-0.482L0.129,-0.185C0.124,-0.153 0.121,-0.127 0.121,-0.106C0.121,-0.053 0.139,-0.022 0.176,-0.013L0.176,0.002C0.147,0.001 0.114,-0 0.077,-0C0.061,-0 0.039,0.001 0.011,0.002L0.011,-0.013C0.031,-0.02 0.046,-0.036 0.056,-0.061C0.066,-0.086 0.076,-0.129 0.087,-0.188L0.183,-0.742L0.208,-0.742L0.46,-0.192L0.7,-0.742L0.725,-0.742L0.818,-0.153C0.821,-0.131 0.824,-0.114 0.827,-0.103C0.829,-0.091 0.832,-0.078 0.837,-0.063C0.841,-0.048 0.846,-0.037 0.852,-0.029C0.858,-0.021 0.865,-0.016 0.873,-0.013Z" style="fill-rule:nonzero;"/>
                </g>
                <g transform="matrix(40.1712,0,0,40.1712,305.921,350.015)">
                    <path d="M0.448,-0.116L0.457,-0.103C0.408,-0.028 0.345,0.01 0.268,0.01C0.201,0.01 0.144,-0.012 0.097,-0.057C0.049,-0.102 0.025,-0.161 0.025,-0.234C0.025,-0.308 0.049,-0.368 0.097,-0.413C0.144,-0.458 0.199,-0.48 0.261,-0.48C0.317,-0.48 0.364,-0.464 0.403,-0.433C0.442,-0.401 0.461,-0.35 0.461,-0.281L0.149,-0.281L0.149,-0.269C0.149,-0.205 0.165,-0.153 0.196,-0.114C0.227,-0.075 0.266,-0.055 0.315,-0.055C0.361,-0.055 0.405,-0.075 0.448,-0.116ZM0.152,-0.313L0.338,-0.313C0.338,-0.406 0.311,-0.453 0.258,-0.453C0.23,-0.453 0.207,-0.44 0.188,-0.413C0.169,-0.386 0.157,-0.353 0.152,-0.313Z" style="fill-rule:nonzero;"/>
                </g>
                <g transform="matrix(40.1712,0,0,40.1712,325.323,350.015)">
                    <path d="M0.526,-0.059L0.534,-0.046C0.509,-0.011 0.479,0.006 0.443,0.006C0.406,0.006 0.382,-0.008 0.369,-0.037C0.335,-0.008 0.296,0.006 0.253,0.006C0.188,0.006 0.134,-0.016 0.091,-0.061C0.047,-0.105 0.025,-0.163 0.025,-0.234C0.025,-0.304 0.049,-0.363 0.096,-0.41C0.142,-0.456 0.2,-0.48 0.268,-0.48C0.305,-0.48 0.335,-0.471 0.36,-0.454L0.36,-0.626C0.36,-0.659 0.358,-0.682 0.355,-0.693C0.352,-0.704 0.343,-0.712 0.329,-0.716L0.329,-0.731C0.388,-0.731 0.439,-0.741 0.484,-0.762L0.484,-0.111C0.484,-0.089 0.486,-0.074 0.489,-0.066C0.492,-0.058 0.498,-0.054 0.507,-0.054C0.513,-0.054 0.519,-0.056 0.526,-0.059ZM0.36,-0.092L0.36,-0.411C0.347,-0.436 0.319,-0.449 0.276,-0.449C0.237,-0.449 0.208,-0.433 0.19,-0.4C0.172,-0.367 0.163,-0.311 0.163,-0.234C0.163,-0.168 0.173,-0.118 0.194,-0.084C0.215,-0.049 0.244,-0.032 0.283,-0.032C0.316,-0.032 0.342,-0.042 0.362,-0.061C0.361,-0.073 0.36,-0.083 0.36,-0.092Z" style="fill-rule:nonzero;"/>
                </g>
                <g transform="matrix(40.1712,0,0,40.1712,347.417,350.015)">
                    <path d="M0.237,-0.013L0.237,0.002C0.208,0.001 0.173,-0 0.132,-0C0.091,-0 0.056,0.001 0.027,0.002L0.027,-0.013C0.044,-0.016 0.055,-0.023 0.061,-0.033C0.067,-0.043 0.07,-0.067 0.07,-0.104L0.07,-0.344C0.07,-0.377 0.068,-0.4 0.065,-0.411C0.062,-0.422 0.053,-0.43 0.039,-0.434L0.039,-0.449C0.098,-0.449 0.149,-0.459 0.194,-0.48L0.194,-0.104C0.194,-0.067 0.197,-0.043 0.203,-0.033C0.209,-0.023 0.22,-0.016 0.237,-0.013ZM0.197,-0.579C0.197,-0.562 0.191,-0.547 0.179,-0.536C0.166,-0.524 0.151,-0.518 0.132,-0.518C0.115,-0.518 0.1,-0.524 0.089,-0.536C0.077,-0.548 0.071,-0.562 0.071,-0.579C0.071,-0.598 0.077,-0.613 0.089,-0.626C0.1,-0.638 0.115,-0.644 0.132,-0.644C0.151,-0.644 0.166,-0.638 0.179,-0.626C0.191,-0.614 0.197,-0.598 0.197,-0.579Z" style="fill-rule:nonzero;"/>
                </g>
                <g transform="matrix(40.1712,0,0,40.1712,357.782,350.015)">
                    <path d="M0.462,-0.055L0.47,-0.042C0.445,-0.007 0.414,0.01 0.377,0.01C0.339,0.01 0.314,-0.006 0.303,-0.038C0.261,-0.006 0.216,0.01 0.167,0.01C0.126,0.01 0.092,-0 0.064,-0.021C0.035,-0.041 0.021,-0.069 0.021,-0.104C0.021,-0.144 0.039,-0.176 0.074,-0.199C0.109,-0.222 0.151,-0.234 0.201,-0.234C0.238,-0.234 0.27,-0.228 0.296,-0.215L0.296,-0.334C0.296,-0.379 0.29,-0.41 0.279,-0.427C0.267,-0.444 0.25,-0.453 0.228,-0.453C0.203,-0.453 0.186,-0.443 0.176,-0.423C0.165,-0.403 0.16,-0.371 0.16,-0.326L0.039,-0.326C0.044,-0.365 0.057,-0.396 0.079,-0.42C0.099,-0.444 0.123,-0.46 0.149,-0.468C0.174,-0.476 0.203,-0.48 0.235,-0.48C0.292,-0.48 0.337,-0.466 0.371,-0.437C0.403,-0.408 0.42,-0.365 0.42,-0.308L0.42,-0.107C0.42,-0.085 0.422,-0.07 0.426,-0.062C0.429,-0.054 0.435,-0.05 0.444,-0.05C0.449,-0.05 0.455,-0.052 0.462,-0.055ZM0.296,-0.088L0.296,-0.189C0.276,-0.198 0.254,-0.203 0.229,-0.203C0.178,-0.203 0.152,-0.176 0.152,-0.121C0.152,-0.091 0.159,-0.069 0.172,-0.055C0.185,-0.041 0.203,-0.034 0.224,-0.034C0.25,-0.034 0.274,-0.044 0.297,-0.063C0.296,-0.068 0.296,-0.077 0.296,-0.088Z" style="fill-rule:nonzero;"/>
                </g>
            </g>
        </g>
    </g>
</svg>
