<?xml version="1.0" encoding="UTF-8" standalone="no"?>
<!DOCTYPE svg PUBLIC "-//W3C//DTD SVG 1.1//EN" "http://www.w3.org/Graphics/SVG/1.1/DTD/svg11.dtd">
<svg width="100%" height="100%" viewBox="0 0 255 80" version="1.1" xmlns="http://www.w3.org/2000/svg" xmlns:xlink="http://www.w3.org/1999/xlink" xml:space="preserve" xmlns:serif="http://www.serif.com/" style="fill-rule:evenodd;clip-rule:evenodd;stroke-linejoin:round;stroke-miterlimit:2;">
    <g transform="matrix(1,0,0,1,0,-791)">
        <g id="Artboard2" transform="matrix(1,0,0,1,0,-0.400181)">
            <rect x="0" y="791.4" width="254.299" height="79.514" style="fill:none;"/>
            <g transform="matrix(0.905497,0,0,0.905497,-91.7461,529.973)">
                <g transform="matrix(40.1712,0,0,40.1712,113.581,350.015)">
                    <rect x="0.088" y="-0.727" width="0.088" height="0.727" style="fill-rule:nonzero;"/>
                </g>
                <g transform="matrix(40.1712,0,0,40.1712,124.195,350.015)">
                    <path d="M0.161,-0.328C0.161,-0.423 0.219,-0.477 0.3,-0.477C0.377,-0.477 0.425,-0.426 0.425,-0.341L0.425,-0L0.509,-0L0.509,-0.347C0.509,-0.486 0.434,-0.553 0.324,-0.553C0.241,-0.553 0.19,-0.516 0.165,-0.46L0.158,-0.46L0.158,-0.545L0.077,-0.545L0.077,-0L0.161,-0L0.161,-0.328Z" style="fill-rule:nonzero;"/>
                </g>
                <g transform="matrix(40.1712,0,0,40.1712,147.704,350.015)">
                    <path d="M0.32,-0.545L0.197,-0.545L0.197,-0.601C0.197,-0.655 0.22,-0.683 0.276,-0.683C0.3,-0.683 0.314,-0.678 0.322,-0.675L0.347,-0.747C0.334,-0.753 0.308,-0.761 0.267,-0.761C0.189,-0.761 0.114,-0.714 0.114,-0.621L0.114,-0.545L0.026,-0.545L0.026,-0.474L0.114,-0.474L0.114,-0L0.197,-0L0.197,-0.474L0.32,-0.474L0.32,-0.545Z" style="fill-rule:nonzero;"/>
                </g>
                <g transform="matrix(40.1712,0,0,40.1712,161.284,350.015)">
                    <path d="M0.298,0.011C0.446,0.011 0.545,-0.101 0.545,-0.27C0.545,-0.44 0.446,-0.553 0.298,-0.553C0.151,-0.553 0.051,-0.44 0.051,-0.27C0.051,-0.101 0.151,0.011 0.298,0.011ZM0.298,-0.064C0.186,-0.064 0.135,-0.161 0.135,-0.27C0.135,-0.379 0.186,-0.477 0.298,-0.477C0.411,-0.477 0.462,-0.379 0.462,-0.27C0.462,-0.161 0.411,-0.064 0.298,-0.064Z" style="fill-rule:nonzero;"/>
                </g>
                <g transform="matrix(40.1712,0,0,40.1712,185.25,350.015)">
                    <path d="M0.077,-0L0.161,-0L0.161,-0.345C0.161,-0.419 0.219,-0.473 0.298,-0.473C0.321,-0.473 0.344,-0.469 0.349,-0.467L0.349,-0.553C0.34,-0.553 0.318,-0.554 0.305,-0.554C0.24,-0.554 0.183,-0.517 0.163,-0.463L0.158,-0.463L0.158,-0.545L0.077,-0.545L0.077,-0Z" style="fill-rule:nonzero;"/>
                </g>
                <g transform="matrix(40.1712,0,0,40.1712,200.2,350.015)">
                    <path d="M0.077,-0L0.161,-0L0.161,-0.341C0.161,-0.421 0.219,-0.477 0.284,-0.477C0.348,-0.477 0.392,-0.436 0.392,-0.374L0.392,-0L0.477,-0L0.477,-0.355C0.477,-0.425 0.521,-0.477 0.598,-0.477C0.658,-0.477 0.709,-0.446 0.709,-0.365L0.709,-0L0.793,-0L0.793,-0.365C0.793,-0.493 0.724,-0.553 0.626,-0.553C0.548,-0.553 0.491,-0.517 0.463,-0.46L0.457,-0.46C0.43,-0.518 0.383,-0.553 0.311,-0.553C0.24,-0.553 0.187,-0.518 0.165,-0.46L0.158,-0.46L0.158,-0.545L0.077,-0.545L0.077,-0Z" style="fill-rule:nonzero;"/>
                </g>
                <g transform="matrix(40.1712,0,0,40.1712,246.42,350.015)">
                    <path d="M0.486,-0.545L0.571,-0.545C0.567,-0.655 0.466,-0.737 0.325,-0.737C0.186,-0.737 0.077,-0.656 0.077,-0.534C0.077,-0.436 0.148,-0.378 0.261,-0.345L0.351,-0.32C0.428,-0.298 0.496,-0.271 0.496,-0.199C0.496,-0.119 0.419,-0.067 0.318,-0.067C0.232,-0.067 0.155,-0.105 0.148,-0.187L0.057,-0.187C0.065,-0.068 0.162,0.013 0.318,0.013C0.486,0.013 0.581,-0.08 0.581,-0.197C0.581,-0.334 0.452,-0.378 0.376,-0.398L0.303,-0.418C0.249,-0.432 0.162,-0.46 0.162,-0.538C0.162,-0.608 0.226,-0.659 0.322,-0.659C0.411,-0.659 0.477,-0.617 0.486,-0.545Z" style="fill-rule:nonzero;"/>
                </g>
                <g transform="matrix(40.1712,0,0,40.1712,272.04,350.015)">
                    <path d="M0.314,-0.545L0.197,-0.545L0.197,-0.676L0.114,-0.676L0.114,-0.545L0.031,-0.545L0.031,-0.474L0.114,-0.474L0.114,-0.134C0.114,-0.038 0.19,0.007 0.261,0.007C0.293,0.007 0.312,0.001 0.324,-0.003L0.307,-0.078C0.3,-0.077 0.288,-0.074 0.27,-0.074C0.233,-0.074 0.197,-0.085 0.197,-0.156L0.197,-0.474L0.314,-0.474L0.314,-0.545Z" style="fill-rule:nonzero;"/>
                </g>
                <g transform="matrix(40.1712,0,0,40.1712,286.648,350.015)">
                    <path d="M0.42,-0.223C0.42,-0.121 0.342,-0.074 0.28,-0.074C0.21,-0.074 0.161,-0.125 0.161,-0.205L0.161,-0.545L0.077,-0.545L0.077,-0.199C0.077,-0.06 0.151,0.007 0.253,0.007C0.335,0.007 0.389,-0.037 0.415,-0.092L0.42,-0.092L0.42,-0L0.504,-0L0.504,-0.545L0.42,-0.545L0.42,-0.223Z" style="fill-rule:nonzero;"/>
                </g>
                <g transform="matrix(40.1712,0,0,40.1712,309.986,350.015)">
                    <path d="M0.283,0.011C0.388,0.011 0.423,-0.054 0.442,-0.084L0.452,-0.084L0.452,-0L0.533,-0L0.533,-0.727L0.449,-0.727L0.449,-0.459L0.442,-0.459C0.423,-0.487 0.391,-0.553 0.284,-0.553C0.146,-0.553 0.051,-0.443 0.051,-0.271C0.051,-0.098 0.146,0.011 0.283,0.011ZM0.294,-0.064C0.189,-0.064 0.135,-0.156 0.135,-0.273C0.135,-0.388 0.187,-0.477 0.294,-0.477C0.396,-0.477 0.45,-0.395 0.45,-0.273C0.45,-0.149 0.395,-0.064 0.294,-0.064Z" style="fill-rule:nonzero;"/>
                </g>
                <g transform="matrix(40.1712,0,0,40.1712,334.922,350.015)">
                    <path d="M0.077,-0L0.161,-0L0.161,-0.545L0.077,-0.545L0.077,-0ZM0.119,-0.636C0.152,-0.636 0.179,-0.662 0.179,-0.693C0.179,-0.724 0.152,-0.75 0.119,-0.75C0.087,-0.75 0.06,-0.724 0.06,-0.693C0.06,-0.662 0.087,-0.636 0.119,-0.636Z" style="fill-rule:nonzero;"/>
                </g>
                <g transform="matrix(40.1712,0,0,40.1712,344.451,350.015)">
                    <path d="M0.298,0.011C0.446,0.011 0.545,-0.101 0.545,-0.27C0.545,-0.44 0.446,-0.553 0.298,-0.553C0.151,-0.553 0.051,-0.44 0.051,-0.27C0.051,-0.101 0.151,0.011 0.298,0.011ZM0.298,-0.064C0.186,-0.064 0.135,-0.161 0.135,-0.27C0.135,-0.379 0.186,-0.477 0.298,-0.477C0.411,-0.477 0.462,-0.379 0.462,-0.27C0.462,-0.161 0.411,-0.064 0.298,-0.064Z" style="fill-rule:nonzero;"/>
                </g>
            </g>
        </g>
    </g>
</svg>
